<?xml version="1.0" encoding="UTF-8"?>
<svg id="Layer_1" data-name="Layer 1" xmlns="http://www.w3.org/2000/svg" viewBox="0 0 512 512">
  <defs>
    <style>
      .cls-1 {
        fill: #fdb913;
      }

      .cls-2 {
        fill: #231f20;
      }
    </style>
  </defs>
  <path class="cls-2" d="M236.03,15.97c-.07,.07-5.56,.37-12.21,.66s-13.68,.59-15.73,.73c-8.19,.59-15.51,1.17-17.92,1.46-1.39,.15-4.53,.51-6.95,.73-5.41,.51-15.95,1.76-19.46,2.27-1.46,.15-3.95,.44-5.49,.66-1.54,.15-3.88,.44-5.12,.66-1.32,.22-3.8,.59-5.49,.8-1.76,.22-6,.88-9.44,1.46s-7.53,1.24-9.14,1.54c-1.61,.22-9.51,1.76-17.55,3.36-17.99,3.51-16.24,3.22-24.14,4.97-3.58,.8-7.24,1.68-8.05,1.83-15.58,3.44-47.32,12.43-72.92,20.63l-6.44,2.05v11.12c0,10.17,.15,11.19,1.32,11.26,1.76,.07,4.02,.44,15.87,2.56,12.51,2.19,11.63,2.05,20.11,3.88,3.8,.8,9.44,1.97,12.43,2.63,25.97,5.49,72.27,17.41,94.72,24.43,21.28,6.66,31.16,9.87,34.38,11.04,2.05,.8,6.95,2.56,10.97,3.95,46.74,16.09,99.25,40.3,140.43,64.66,9.14,5.49,30.57,19.16,35.4,22.67,1.76,1.32,3.44,2.34,3.73,2.34,1.68,0,32.69-30.21,43.96-42.79,25.23-28.23,46.37-56.76,62.76-84.85,6.22-10.61,16.16-29.7,16.16-31.01,0-1.24-33.94-13.68-52.59-19.24-12.36-3.66-29.4-8.27-33.72-9.07-1.02-.22-3.66-.8-5.85-1.39-9.14-2.34-39.35-8.05-50.47-9.44-1.83-.29-4.46-.59-5.85-.8s-4.02-.51-5.85-.73-4.1-.59-5.12-.73-3.95-.51-6.58-.73c-2.63-.29-5.71-.59-6.95-.73-1.17-.15-5.12-.44-8.78-.73-3.58-.29-7.75-.59-9.14-.73-9.65-.88-64.51-2.12-65.32-1.39Z"/>
  <path class="cls-1" d="M.44,270.8c0,95.52,.29,153.09,.73,153.53,.37,.37,3,1.97,5.78,3.58,38.25,21.43,71.97,35.55,115.93,48.79,9.65,2.85,35.25,8.85,47.18,10.97,6.66,1.17,15.07,2.56,17.92,2.93,1.83,.22,5.12,.73,7.31,1.1s6,.88,8.41,1.1,5.49,.59,6.8,.73c1.32,.22,4.83,.59,7.68,.8,2.93,.22,6.44,.51,7.83,.66,15.8,1.68,56.54,1.68,79.36,.07,7.83-.59,15.58-1.24,17.19-1.54,1.02-.15,3.8-.51,6.22-.73s5.41-.59,6.58-.73c1.24-.22,4.97-.73,8.41-1.17s7.02-.95,8.05-1.1c1.9-.22,17.04-2.85,20.85-3.58,36.35-7.02,84.19-21.36,111.54-33.43,2.19-1.02,5.49-2.41,7.31-3.22,1.83-.73,7.17-3.29,11.85-5.56l8.63-4.17-.88-2.05c-.51-1.1-3.51-7.09-6.58-13.24-27.79-54.71-66.56-102.84-116.15-144.16-9.44-7.9-9.8-8.19-11.12-9.22-44.76-35.33-89.75-61.66-148.7-87.19-25.38-11.04-65.02-25.6-89.23-32.77-23.11-6.95-37.6-11.04-43.52-12.51-.59-.15-7.02-1.76-14.26-3.58-15.73-4.02-24.94-6.14-50.83-11.7-3.88-.88-16.9-3.36-19.02-3.73-1.39-.22-3.73-.66-5.12-1.1-1.39-.37-3.36-.66-4.39-.66H.37l.07,152.87Z"/>
</svg>